<?xml version="1.0" encoding="UTF-8"?>
<svg width="200px" height="34px" viewBox="0 0 200 34" version="1.1" xmlns="http://www.w3.org/2000/svg" xmlns:xlink="http://www.w3.org/1999/xlink">
    <title>Group</title>
    <g id="Page-1" stroke="none" stroke-width="1" fill="none" fill-rule="evenodd">
        <g id="home" transform="translate(-100.000000, -38.000000)" fill="#FFFFFF">
            <g id="Group" transform="translate(100.000000, 39.000000)">
                <g id="Group-6">
                    <path d="M3.68855315,31.2691516 C3.03097928,32.2167366 2.05108113,32.1781826 2.05108113,32.1781826 C0.918099135,32.1781826 0,31.2602655 0,30.1272835 L0,3.4676719 C0,2.33549774 0.918099135,1.41739861 2.05108113,1.41739861 L18.2727175,1.40608898 C19.5341445,1.36246615 20.5079839,2.33549774 20.5079839,3.4676719 C20.5079839,3.4676719 20.4780942,4.06425458 20.212318,4.50654167 C20.1565777,4.58086206 4.34612701,30.3215667 3.68855315,31.2691516" id="Fill-1"></path>
                    <path d="M26.0119741,0.909030998 C26.6695479,-0.0385539425 27.6494461,0 27.6494461,0 C28.7824281,0 29.6997194,0.917513217 29.6997194,2.05089913 L29.6997194,28.7105107 C29.6997194,29.842281 28.7824281,30.760784 27.6494461,30.760784 L11.4278098,30.7716897 C10.1663827,30.8157165 9.19335115,29.842281 9.19335115,28.7105107 C9.19335115,28.7105107 9.22243304,28.1139281 9.48820921,27.671641 C9.5439495,27.5977245 25.3544002,1.85661594 26.0119741,0.909030998" id="Fill-4"></path>
                    <path d="M59.8726254,11.9837785 L59.8726254,29.4878454 C59.8726254,29.889741 59.646029,30.2019674 59.2837171,30.3356633 C56.6102027,31.227508 53.8458074,31.6738342 50.991743,31.6738342 C42.3370531,31.6738342 36.7743336,27.4367643 36.7743336,16.332329 C36.7743336,5.62857756 41.7683405,1.16935431 51.2385351,1.16935431 C53.2770949,1.16935431 55.4073434,1.34748089 57.808215,1.79340322 C58.2614078,1.88226455 58.4431696,2.23932554 58.4431696,2.59638654 L58.4431696,4.84619392 C58.4431696,5.47024282 58.0804538,5.60474657 57.4459031,5.51467349 C55.8597283,5.29211624 53.7755262,4.99523861 51.4194891,5.0243205 C45.8737341,5.09298607 40.8946721,7.25554779 40.8946721,16.2644713 C40.8946721,25.2729909 45.3728793,27.9969946 51.3084124,27.9969946 C52.7588717,27.9969946 54.5538707,27.8180602 55.7781375,27.5950991 L55.7781375,15.0365692 L50.8229064,15.0365692 C50.3697136,15.0365692 50.0978787,14.7687735 50.0978787,14.3228512 L50.0978787,11.9837785 C50.0978787,11.5378562 50.3697136,11.2704644 50.8229064,11.2704644 L59.1475977,11.2704644 C59.6011944,11.2704644 59.8726254,11.5378562 59.8726254,11.9837785" id="Fill-6"></path>
                    <path d="M76.5275819,11.8360668 L76.5275819,14.1181874 C76.5275819,14.6566062 76.326836,14.8642186 75.8457731,14.8642186 L75.765394,14.8642186 C73.8286208,14.7927257 70.3444487,15.1372653 68.5365245,17.114026 C67.1559426,18.6226491 67.4479732,20.931832 67.3974838,21.63626 L67.4180835,30.5534948 C67.4180835,30.9275202 67.1773501,31.1755241 66.8166538,31.1755241 L64.0090396,31.1755241 C63.6483434,31.1755241 63.40761,30.9275202 63.40761,30.5534948 L63.40761,11.9354299 C63.40761,11.520609 63.6483434,11.2717973 64.0490272,11.2717973 L66.5355289,11.2717973 C66.9362127,11.2717973 67.1773501,11.520609 67.1773501,11.9354299 L67.1773501,14.2631929 C69.6452716,11.834855 72.9432388,11.339655 75.6046357,11.1724342 C76.3656119,11.1251761 76.5275819,11.3800466 76.5275819,11.8360668" id="Fill-8"></path>
                    <path d="M94.4994633,18.4456131 L94.4994633,30.5121743 C94.4994633,30.9265912 94.2506516,31.1758069 93.8358307,31.1758069 L91.306514,31.1758069 C90.892501,31.1758069 90.6436893,30.9265912 90.6436893,30.5121743 L90.6436893,29.4341247 C88.7771974,31.0097977 86.6215022,31.6734303 84.2161875,31.6734303 C79.9035855,31.6734303 77.4574753,29.5589345 77.4574753,25.3291351 L77.4574753,25.2459285 C77.4574753,21.140535 79.7795835,19.1916444 86.1650781,19.1916444 L86.3310872,19.1916444 C87.6999557,19.1916444 89.0260091,19.3164542 90.3532743,19.4820594 L90.3532743,18.6112183 C90.3532743,15.1702651 89.3580274,14.2994241 85.6674546,14.2994241 C83.5941582,14.2994241 81.7700774,14.5890312 80.277207,14.837843 C79.8211868,14.8794462 79.5303679,14.6722378 79.5303679,14.2162176 L79.5303679,12.1429211 C79.5303679,11.6452976 79.6555816,11.4376852 80.0691907,11.3544787 C81.9356826,11.0232683 84.299394,10.7740527 86.3726905,10.7740527 C92.0117499,10.7740527 94.4994633,12.8065537 94.4994633,18.4456131 M85.003822,28.4388778 C86.8695061,28.4388778 88.7355941,27.8172524 90.3532743,26.6971957 L90.3532743,22.3845936 C88.8604039,22.2189884 87.4915355,22.1361858 86.289484,22.1361858 L86.1234748,22.1361858 C82.7649204,22.1361858 81.5620611,22.9654236 81.5620611,25.162722 L81.5620611,25.2459285 C81.5620611,27.4440348 82.6817139,28.4388778 85.003822,28.4388778" id="Fill-10"></path>
                    <path d="M112.764587,28.3616492 L112.764587,30.4539297 C112.764587,30.8719819 112.49558,31.1232171 112.048446,31.1232171 L98.217583,31.1232171 C97.7692372,31.1232171 97.5014415,30.8719819 97.5014415,30.4539297 L97.5014415,28.3616492 C97.5014415,28.0688107 97.5903028,27.7763762 97.7692372,27.525141 L107.30325,14.4701994 L98.5750479,14.4701994 C98.12751,14.4701994 97.8589064,14.2189642 97.8589064,13.8001042 L97.8589064,11.7086315 C97.8589064,11.2897715 98.12751,11.0385363 98.5750479,11.0385363 L111.600908,11.0385363 C112.048446,11.0385363 112.317049,11.2897715 112.317049,11.7086315 L112.317049,13.8425153 C112.317049,14.1349498 112.226976,14.4277883 112.048446,14.6790235 L102.559267,27.6923618 L112.048446,27.6923618 C112.49558,27.6923618 112.764587,27.9431931 112.764587,28.3616492" id="Fill-12"></path>
                    <path d="M131.742096,28.4001423 L131.742096,30.4920189 C131.742096,30.910475 131.475512,31.1613063 131.030802,31.1613063 L117.291224,31.1613063 C116.846917,31.1613063 116.579525,30.910475 116.579525,30.4920189 L116.579525,28.4001423 C116.579525,28.1073039 116.669598,27.8144654 116.846917,27.5636341 L126.317516,14.5082886 L117.647073,14.5082886 C117.202362,14.5082886 116.935779,14.2574573 116.935779,13.8390012 L116.935779,11.7471246 C116.935779,11.3278607 117.202362,11.0774333 117.647073,11.0774333 L130.586495,11.0774333 C131.030802,11.0774333 131.297386,11.3278607 131.297386,11.7471246 L131.297386,13.8806045 C131.297386,14.1734429 131.209332,14.4666853 131.030802,14.7175166 L121.603826,27.730451 L131.030802,27.730451 C131.475512,27.730451 131.742096,27.9816862 131.742096,28.4001423" id="Fill-14"></path>
                    <path d="M142.459863,21.2239434 C142.459863,14.0912058 145.146707,10.7742546 151.362961,10.7742546 C157.5776,10.7742546 160.264847,14.0912058 160.264847,21.2239434 C160.264847,28.3558732 157.5776,31.6736323 151.362961,31.6736323 C145.146707,31.6736323 142.459863,28.3558732 142.459863,21.2239434 M156.134411,21.2239434 C156.134411,16.0405003 154.770793,14.3404215 151.362961,14.3404215 C147.913526,14.3404215 146.550716,16.0405003 146.550716,21.2239434 C146.550716,26.4069826 147.913526,28.1070615 151.362961,28.1070615 C154.770793,28.1070615 156.134411,26.4069826 156.134411,21.2239434" id="Fill-16"></path>
                    <path d="M173.724431,28.5220035 L173.724431,30.7197059 C173.724431,31.0929235 173.523685,31.3829345 173.123001,31.4245378 C172.200459,31.5909508 171.157954,31.6733495 170.195828,31.6733495 C165.944217,31.6733495 164.139928,29.9316674 164.139928,24.7894236 L164.139928,14.6717531 L161.573048,14.6717531 C161.172364,14.6717531 160.93163,14.4237492 160.93163,14.0085244 L160.93163,11.9352279 C160.93163,11.520811 161.172364,11.2715953 161.573048,11.2715953 L164.139928,11.2715953 L164.139928,5.71533854 C164.139928,5.30051768 164.380662,5.05251378 164.781346,5.05251378 L167.508581,5.05251378 C167.909668,5.05251378 168.150402,5.30051768 168.150402,5.71533854 L168.150402,11.2715953 L172.72151,11.2715953 C173.123001,11.2715953 173.362927,11.520811 173.362927,11.9352279 L173.362927,14.0085244 C173.362927,14.4237492 173.123001,14.6717531 172.72151,14.6717531 L168.150402,14.6717531 L168.150402,24.0849956 C168.150402,27.3607475 168.791819,28.1071827 170.956804,28.1071827 C171.638613,28.1071827 172.360813,28.0655794 173.042622,27.9831807 C173.483294,27.9415775 173.724431,28.0655794 173.724431,28.5220035" id="Fill-18"></path>
                    <path d="M177.359869,4.02931592 L180.087508,4.02931592 C180.466381,4.02931592 180.731753,4.30680563 180.731753,4.70304639 L180.731753,7.51712324 C180.731753,7.913364 180.466381,8.19085371 180.087508,8.19085371 L177.359869,8.19085371 C176.980997,8.19085371 176.716028,7.913364 176.716028,7.51712324 L176.716028,4.70304639 C176.716028,4.30680563 176.980997,4.02931592 177.359869,4.02931592" id="Fill-20"></path>
                    <path d="M176.668972,30.7070633 L176.668972,12.0889984 C176.668972,11.6741776 176.91011,11.4253658 177.310794,11.4253658 L180.038029,11.4253658 C180.438712,11.4253658 180.678638,11.6741776 180.678638,12.0889984 L180.678638,30.7070633 C180.678638,31.079877 180.438712,31.3290927 180.077208,31.3290927 L177.270402,31.3290927 C176.91011,31.3290927 176.668972,31.079877 176.668972,30.7070633" id="Fill-22"></path>
                    <path d="M200,18.1012754 L200,30.6654601 C200,31.0802809 199.759267,31.3294966 199.358583,31.3294966 L196.631348,31.3294966 C196.23026,31.3294966 195.989526,31.0802809 195.989526,30.6654601 L195.989526,18.9721165 C195.989526,15.5719588 195.187351,14.4935053 192.981974,14.4935053 C191.137294,14.4935053 189.333005,15.2399405 187.72825,16.31799 L187.72825,30.7070633 C187.72825,31.0802809 187.488324,31.3294966 187.127628,31.3294966 L184.320014,31.3294966 C183.958914,31.3294966 183.718584,31.0802809 183.718584,30.7070633 L183.718584,12.0885945 C183.718584,11.6737736 183.958914,11.4249619 184.360405,11.4249619 L186.806516,11.4249619 C187.207199,11.4249619 187.447933,11.6737736 187.447933,12.0885945 L187.447933,13.2498506 C189.492551,11.6737736 191.658748,10.9277424 193.984896,10.9277424 C198.15532,10.9277424 200,13.3322493 200,18.1012754" id="Fill-24"></path>
                    <path d="M135.246181,30.5457396 L135.246181,11.7095605 C135.246181,11.2902966 135.486915,11.0386575 135.887598,11.0386575 L138.614834,11.0386575 C139.015921,11.0386575 139.256655,11.2902966 139.256655,11.7095605 L139.256655,30.5457396 C139.256655,30.9234003 139.015921,31.1750394 138.654417,31.1750394 L135.847611,31.1750394 C135.486915,31.1750394 135.246181,30.9234003 135.246181,30.5457396" id="Fill-26"></path>
                    <path d="M135.83311,3.91868356 L138.561153,3.91868356 C138.940026,3.91868356 139.204994,4.19617327 139.204994,4.59241403 L139.204994,7.40649088 C139.204994,7.80192381 138.940026,8.08022135 138.561153,8.08022135 L135.83311,8.08022135 C135.454238,8.08022135 135.18927,7.80192381 135.18927,7.40649088 L135.18927,4.59241403 C135.18927,4.19617327 135.454238,3.91868356 135.83311,3.91868356" id="Fill-28"></path>
                    <path d="M68.6096332,4.16640472 L68.6096332,7.23373637 C68.6096332,7.32138595 68.5547007,7.3892437 68.4670511,7.41832559 C67.8228065,7.61341661 67.1563465,7.71035624 66.4672672,7.71035624 C64.3802376,7.71035624 63.3967043,6.78539055 63.3967043,4.36109182 C63.3967043,2.02403877 64.3143995,1.05019934 66.5985396,1.05019934 C67.0905083,1.05019934 67.6042884,1.08937911 68.1830988,1.18672266 C68.2929637,1.20611059 68.3365865,1.28447013 68.3365865,1.36202184 L68.3365865,1.91740517 C68.3365865,2.05312066 68.2489369,2.08301038 68.0958531,2.06321854 C67.7133455,2.01434481 67.210875,1.95577711 66.6421625,1.95577711 C65.1012262,1.95577711 64.5882539,2.38433108 64.5882539,4.35099395 C64.5882539,6.31846464 65.1121319,6.84395825 66.5436072,6.84395825 C66.8933977,6.84395825 67.210875,6.80518239 67.506137,6.75630866 L67.506137,4.8962794 L66.3582101,4.8962794 C66.2487491,4.8962794 66.1833149,4.83811562 66.1833149,4.74077206 L66.1833149,4.16640472 C66.1833149,4.06946509 66.2487491,4.01008956 66.3582101,4.01008956 L68.434334,4.01008956 C68.543795,4.01008956 68.6096332,4.06946509 68.6096332,4.16640472" id="Fill-30"></path>
                    <path d="M74.674096,7.59374594 L73.8327408,7.59374594 C73.7337815,7.59374594 73.679253,7.56466405 73.6352262,7.47701446 L72.5317301,5.24699892 L72.3681444,5.24699892 L71.1438776,5.24699892 L71.1438776,7.43743078 C71.1438776,7.53517824 71.0784434,7.59374594 70.9693863,7.59374594 L70.1716538,7.59374594 C70.0621928,7.59374594 69.9963547,7.53517824 69.9963547,7.43743078 L69.9963547,1.32336716 C69.9963547,1.22561969 70.0621928,1.167052 70.1716538,1.167052 L71.1438776,1.167052 L72.3681444,1.167052 C74.0617606,1.167052 74.7831531,1.73212929 74.7831531,3.21247831 C74.7831531,4.25417548 74.422053,4.83823679 73.6142227,5.09149159 L74.8166781,7.40915672 C74.8703988,7.52548428 74.8049645,7.59374594 74.674096,7.59374594 L74.674096,7.59374594 Z M71.1438776,4.37090696 L72.2914005,4.37090696 C73.3076511,4.37090696 73.6142227,4.13744401 73.6142227,3.21247831 C73.6142227,2.29720658 73.3185568,2.05324183 72.2914005,2.05324183 L71.1438776,2.05324183 L71.1438776,4.37090696 Z" id="Fill-32"></path>
                    <path d="M76.0394504,5.20814228 L76.0394504,1.32328638 C76.0394504,1.22553891 76.1052886,1.16697121 76.2147496,1.16697121 L77.012482,1.16697121 C77.1211352,1.16697121 77.1869733,1.22553891 77.1869733,1.32328638 L77.1869733,5.1204927 C77.1869733,6.40615462 77.6131038,6.8056267 78.749721,6.8056267 C79.8863383,6.8056267 80.3015631,6.40615462 80.3015631,5.1204927 L80.3015631,1.32328638 C80.3015631,1.22553891 80.3665934,1.16697121 80.4760544,1.16697121 L81.2737868,1.16697121 C81.3836517,1.16697121 81.4486821,1.22553891 81.4486821,1.32328638 L81.4486821,5.20814228 C81.4486821,6.98052196 80.6622593,7.71039664 78.749721,7.71039664 C76.8371828,7.71039664 76.0394504,6.98052196 76.0394504,5.20814228" id="Fill-34"></path>
                </g>
                <path d="M87.7865551,3.23154311 C87.7865551,4.75066799 87.0651626,5.31493745 85.3279236,5.31493745 L84.1258721,5.31493745 L84.1258721,7.43751156 C84.1258721,7.53525903 84.0600339,7.59382672 83.9513807,7.59382672 L83.1524366,7.59382672 C83.0437834,7.59382672 82.9783491,7.53525903 82.9783491,7.43751156 L82.9783491,1.32344794 C82.9783491,1.22570048 83.0437834,1.16713278 83.1524366,1.16713278 L84.1258721,1.16713278 L85.3279236,1.16713278 C87.0764722,1.16713278 87.7865551,1.73221007 87.7865551,3.23154311 M86.6172207,3.23154311 C86.6172207,2.29728737 86.3223627,2.05332262 85.2515836,2.05332262 L84.1258721,2.05332262 L84.1258721,4.42915153 L85.2515836,4.42915153 C86.311457,4.42915153 86.6172207,4.18559069 86.6172207,3.23154311" id="Fill-36"></path>
                <path d="M88.5835201,4.38060093 C88.5835201,1.99507805 89.4798078,1.05032052 91.5341202,1.05032052 C93.5779309,1.05032052 94.462909,1.99507805 94.462909,4.38060093 C94.462909,6.7661238 93.5779309,7.71088133 91.5341202,7.71088133 C89.4798078,7.71088133 88.5835201,6.7661238 88.5835201,4.38060093 M93.2721671,4.38060093 C93.2721671,2.52057166 92.8242252,1.9563022 91.5341202,1.9563022 C90.2339174,1.9563022 89.7750698,2.52057166 89.7750698,4.38060093 C89.7750698,6.24063019 90.2339174,6.80489965 91.5341202,6.80489965 C92.8242252,6.80489965 93.2721671,6.24063019 93.2721671,4.38060093" id="Fill-38"></path>
            </g>
        </g>
    </g>
</svg>